<?xml version="1.0" encoding="utf-8"?>
<!-- Generator: Adobe Illustrator 19.2.1, SVG Export Plug-In . SVG Version: 6.00 Build 0)  -->
<svg version="1.1" id="layer" xmlns="http://www.w3.org/2000/svg" xmlns:xlink="http://www.w3.org/1999/xlink" x="0px" y="0px"
	 viewBox="0 0 652 652" style="enable-background:new 0 0 652 652;" xml:space="preserve">
<style type="text/css">
	.st0{fill:#E1393F;}
	.st1{fill:#FFFFFF;}
</style>
<path d="M607.3,374.9c-8.8,0-13-6.3-13-18.8v-88.5c0-12.7,4-18.7,13-18.7c9,0,12.8,6.3,12.8,18.7v88.5
	C620,368.7,616,374.9,607.3,374.9z M530.3,411.2c-23.8,0-38-8.8-38-18.8c-0.1-6,4.5-11,10.5-11.3h0.8c6.5,0,14.3,7,27.8,7
	s20.3-7.8,20.3-21.8c0-1-0.3-2-0.3-3.3c-5.2,7.9-14.1,12.6-23.5,12.3c-20.5,0-37.5-18.8-37.5-45s18.3-45.8,40.3-45.8
	c8-0.4,15.7,3.1,20.8,9.3c2.1-4.6,6.5-7.8,11.5-8.2c8.8,0,13,6,13,18.8v51.8c0,15.5-1,27.5-6,35.8
	C562,404.4,548.5,411.2,530.3,411.2L530.3,411.2z M534,308.9c-9.5,0-17,8.3-17,21.3s7.2,21.8,17,21.8c9.8,0,17-8.5,17-21.8
	S543.5,308.9,534,308.9z M432,411.2c-23.8,0-38-8.8-38-18.8c-0.1-6,4.5-11,10.5-11.3h0.8c6.5,0,14.3,7,27.8,7
	c13.5,0,20.3-7.8,20.3-21.8c0-1-0.3-2-0.3-3.3c-5.2,7.9-14.1,12.6-23.5,12.3c-20.3,0-37.5-18.8-37.5-45s18.3-45.8,40.3-45.8
	c8-0.4,15.7,3.1,20.8,9.3c2.1-4.6,6.5-7.8,11.5-8.2c8.8,0,13,6,13,18.8v51.8c0,15.5-1,27.5-6,35.8C464,404.4,450.5,411.2,432,411.2
	L432,411.2z M435.7,308.9c-9.5,0-17,8.3-17,21.3s7.2,21.8,17,21.8s17-8.5,17-21.8S445.2,308.9,435.7,308.9z M340.5,376.4
	c-25.5,0-43.8-19.3-43.8-46.3s18.5-46.3,43.8-46.3c25.3,0,43.8,19.3,43.8,46.3s-18,46.3-43.5,46.3H340.5z M340.5,308.2
	c-9.5,0-17,8.3-17,21.8s7.3,22,17,22s17-8.5,17-22S350,308.2,340.5,308.2z M280.2,310.4H278v45.8c0,12.5-4,18.8-12.7,18.8
	s-12.7-6.3-12.7-18.8v-45.8h-1c-9.3,0-14.5-4.5-14.5-11.3s5.3-11,15.5-11.5v-11.3c0-12.5,4-18.8,13-18.8s12.8,6.3,12.8,18.8v11.3
	h2.3c10.3,0,16.3,4.5,16.3,11.5S291.2,310.4,280.2,310.4z"/>
<circle class="st0" cx="109" cy="319.9" r="89"/>
<path class="st1" d="M115,266.2h-12.5v62.5H115V266.2z M108.8,366.2c-24.2-0.1-43.7-19.7-43.6-43.9c0-19.7,13.3-37,32.4-42.1v13
	c-16.1,6.2-24.1,24.3-17.9,40.4c6.2,16.1,24.3,24.1,40.4,17.9s24.1-24.3,17.9-40.4c-3.2-8.2-9.7-14.7-17.9-17.9v-13
	c23.3,6.3,37.2,30.3,30.9,53.6C145.8,352.9,128.5,366.1,108.8,366.2z"/>
</svg>
